/* XPM */
static char *bitcoin32[] = {
/* columns rows colors chars-per-pixel */
"32 32 242 2 ",
"   c gray35",
".  c #5B5B5B",
"X  c gray36",
"o  c #5D5D5D",
"O  c gray37",
"+  c #5E5F5E",
"@  c #5F5F5E",
"#  c #606060",
"$  c gray38",
"%  c #626162",
"&  c #626262",
"*  c gray39",
"=  c #646464",
"-  c #656565",
";  c gray40",
":  c #666766",
">  c #676767",
",  c #686868",
"<  c DimGray",
"1  c #6A6A6A",
"2  c #6C6C6B",
"3  c #6C6C6C",
"4  c #6E6E6D",
"5  c #707170",
"6  c #727372",
"7  c gray46",
"8  c #797979",
"9  c #80CB48",
"0  c #81CC4B",
"q  c #82CC4A",
"w  c #82CC4B",
"e  c #82CD4B",
"r  c #83CD4B",
"t  c #82CC4C",
"y  c #83CC4C",
"u  c #82CD4C",
"i  c #83CD4C",
"p  c #83CD4D",
"a  c #84CD4D",
"s  c #84CD4E",
"d  c #85CD4F",
"f  c #85CE4F",
"g  c #85CE50",
"h  c #86CE50",
"j  c #86CE51",
"k  c #87CE51",
"l  c #87CE52",
"z  c #87CE53",
"x  c #88CE53",
"c  c #88CF53",
"v  c #88CF54",
"b  c #89CF54",
"n  c #89CF55",
"m  c #89CF56",
"M  c #8ACF56",
"N  c #8ACF57",
"B  c #8BD057",
"V  c #8BD058",
"C  c #8CD058",
"Z  c #8CD059",
"A  c #8DD15A",
"S  c #8DD15B",
"D  c #8ED15C",
"F  c #8FD15D",
"G  c #8FD25D",
"H  c #8FD15E",
"J  c #8FD25E",
"K  c #90D25F",
"L  c #90D260",
"P  c #91D360",
"I  c #92D361",
"U  c #92D362",
"Y  c #93D364",
"T  c #94D364",
"R  c #95D466",
"E  c #96D467",
"W  c #96D567",
"Q  c #97D569",
"!  c #97D56A",
"~  c #98D56A",
"^  c #98D56B",
"/  c #99D66C",
"(  c #9AD66D",
")  c #9AD66E",
"_  c #9CD770",
"`  c #9CD771",
"'  c #9ED873",
"]  c #9ED874",
"[  c #9FD874",
"{  c #9FD875",
"}  c #A1D876",
"|  c #A0D976",
" . c #A1D977",
".. c #A3DA7B",
"X. c #A5DB7C",
"o. c #878786",
"O. c #888888",
"+. c gray56",
"@. c #919190",
"#. c #939393",
"$. c #979797",
"%. c #9B9C9B",
"&. c gray62",
"*. c #A4A5A4",
"=. c #ACADAC",
"-. c #AFAFAE",
";. c #B1B1B1",
":. c #B7B8B7",
">. c #BBBCBB",
",. c #AADD85",
"<. c #ADDE8A",
"1. c #AEDE8B",
"2. c #B0DF8D",
"3. c #B1DF90",
"4. c #B1E08F",
"5. c #B2E090",
"6. c #B3E091",
"7. c #B4E193",
"8. c #B8E299",
"9. c #BAE39B",
"0. c #BAE39C",
"q. c #BBE39D",
"w. c #BBE49D",
"e. c #BBE49E",
"r. c #BDE4A0",
"t. c #BFE5A2",
"y. c #C0E5A3",
"u. c #C0E5A4",
"i. c #C0E6A5",
"p. c #C1E6A6",
"a. c #C2E6A7",
"s. c #C3E7A9",
"d. c #C5E8AB",
"f. c #C8E9AF",
"g. c #C8E9B0",
"h. c #C9E9B1",
"j. c #CAEAB3",
"k. c #CBEAB3",
"l. c #CBEAB4",
"z. c #CCEAB5",
"x. c #CCEAB6",
"c. c #CEEBB7",
"v. c #CEEBB8",
"b. c #CFECBA",
"n. c #D1EDBD",
"m. c #D2EDBE",
"M. c #D3EDBF",
"N. c #C5C6C5",
"B. c #CACACA",
"V. c gray81",
"C. c LightGray",
"Z. c #D5D5D5",
"A. c #D7D8D7",
"S. c #D8D8D8",
"D. c #DDDDDD",
"F. c #DEDEDD",
"G. c #D4EEC0",
"H. c #D4EEC1",
"J. c #D5EEC2",
"K. c #D5EEC3",
"L. c #D6EEC3",
"P. c #D6EFC4",
"I. c #D7EFC5",
"U. c #D8EFC7",
"Y. c #D8F0C7",
"T. c #D9F0C8",
"R. c #DAF1CA",
"E. c #DCF1CC",
"W. c #DDF2CE",
"Q. c #DEF2CF",
"!. c #DFF2D1",
"~. c #DFF3D1",
"^. c #E0F3D2",
"/. c #E0F3D3",
"(. c #E2F3D5",
"). c #E3F4D6",
"_. c #E4F4D8",
"`. c #E5F4D9",
"'. c #E6F5DA",
"]. c #E6F5DB",
"[. c #E7F5DC",
"{. c #E8F6DE",
"}. c #E9F6DF",
"|. c #E2E2E2",
" X c gray90",
".X c #E6E6E5",
"XX c #E9E9E9",
"oX c #EAEAEA",
"OX c #EAEBEA",
"+X c gray92",
"@X c gray93",
"#X c #EEEDEE",
"$X c #E9F6E0",
"%X c #EBF7E2",
"&X c #EBF7E3",
"*X c #ECF8E4",
"=X c #EEF8E6",
"-X c #EEF8E7",
";X c #F0F9E9",
":X c #F1F9EA",
">X c #F1F9EB",
",X c #F1FAEB",
"<X c #F1F9EC",
"1X c #F2FAEC",
"2X c #F2FAED",
"3X c #F3FAED",
"4X c #F3FAEE",
"5X c #F4FBEE",
"6X c #F4FBEF",
"7X c #F1F1F1",
"8X c #F3F4F3",
"9X c #F4F4F4",
"0X c #F6F6F6",
"qX c gray97",
"wX c #F4FBF0",
"eX c #F5FBF0",
"rX c #F6FBF2",
"tX c #F6FCF2",
"yX c #F6FCF3",
"uX c #F7FCF3",
"iX c #F8FCF4",
"pX c #F8FCF5",
"aX c #F9FDF7",
"sX c #FAFDF7",
"dX c #F9F9F9",
"fX c #FBFBFB",
"gX c #FAFDF8",
"hX c #FBFDF8",
"jX c #FBFDF9",
"kX c #FBFEF9",
"lX c #FBFEFA",
"zX c #FCFEFA",
"xX c #FCFEFB",
"cX c #FDFEFC",
"vX c #FEFEFD",
"bX c #FEFFFD",
"nX c #FFFDFF",
"mX c #FEFEFE",
"MX c #FEFFFE",
"NX c #FFFFFE",
"BX c gray100",
"VX c None",
/* pixels */
"VXVXVXVXVXVXVXVXVXVXVXVXw l S L T G n y VXVXVXVXVXVXVXVXVXVXVXVX",
"VXVXVXVXVXVXVXVXVXp G 1.b.'.4XrXpX4X[.n.6.L p VXVXVXVXVXVXVXVXVX",
"VXVXVXVXVXVXVXVXI s.;XBXBXBXBXBXBXBXBXBXBX6Xl.R w VXVXVXVXVXVXVX",
"VXVXVXVXVXVXp 4.;XBXBXBXBXBXBXBXBXBXBXBXBXBXBXtX0.l VXVXVXVXVXVX",
"VXVXVXVXVXl l.BXBXBXBXBXBXBXBXBXBXBXBXBXBXBXBXBXBXH.B VXVXVXVXVX",
"VXVXVXVXl H.BX#X|. X X XBXBXBXBXBXBXBXBX*X%X%X}.;XBX~.S VXVXVXVX",
"VXVXVXp x.BXBXZ.* > > % >.BXBXBXBXBXBXH.l n V d H.BXBXT.l VXVXVX",
"VXVXVX3.BXBXBXBX&.. ; % 4 +XBXBXBXBXrXR d n w ,.BXBXBXBXt.w VXVX",
"VXVXL 4XBXBXBXBX7X6 % ; O %.BXBXBXBXw.w n x S *XBXBXBXBXhX( VXVX",
"VXw d.BXBXBXBXBXBXN.O ; ; O C.BXBX'.c l n w g.BXBXBXBXBXBXH.p VX",
"VXG 4XBXBXBXBXBXBXBX+.O ; ; D.BXBX .p n d { hXBXBXBXBXBXBXhX~ VX",
"VX1.BXBXBXBXBXBXBXBX X<   -.BXBXb.w B c l (.BXBXBXBXBXBXBXBXt.VX",
"p b.BXBXBXBXBXBXBXBXBX-.6 9XBXrXL l n w 9.BXBXBXBXBXBXBXBXBXW.d ",
"l '.BXBXBXBXBXBXBXBXBX9XD.BXBXa.w n d R tXBXBXBXBXBXBXBXBXBX;XS ",
"G 4XBXBXBXBXBXBXBXBXBXBXBXBX}.V x x l P.BXBXBXBXBXBXBXBXBXBXhX~ ",
"Y pXBXBXBXBXBXBXBXBXBXBXBXBX7.9 B d | BXBXBXBXBXBXBXBXBXBXBXBX{ ",
"L sXBXBXBXBXBXBXBXBXBXBXBXBX'.n l n n W.BXBXBXBXBXBXBXBXBXBXBX' ",
"K 4XBXBXBXBXBXBXBXBXBXfX8XBXBXt.w n d ( sXBXBXBXBXBXBXBXBXBXhX( ",
"B [.BXBXBXBXBXBXBXBXBX;.@.BXBXwXK l n w t.BXBXBXBXBXBXBXBXBX4XG ",
"d n.BXBXBXBXBXBXBXBXXX< O V.BXBXg.w n x n [.BXBXBXBXBXBXBXBX~.l ",
"VX6.BXBXBXBXBXBXBXBX@.O % 8 7XBXcX| d n p X.BXBXBXBXBXBXBXBXt.VX",
"VXI tXBXBXBXBXBXBXB.O ; ; + A.BXBX).l n n 9 b.BXBXBXBXBXBXBX` VX",
"VXw x.BXBXBXBXBX8X7 % ; X $.BXBXBXBX9.p n l G ;XBXBXBXBXBXT.d VX",
"VXVXR sXBXBXBXBX*.O ; % 2 XXBXBXBXBX6XL l n p 2.BXBXBXBXBX| VXVX",
"VXVXw 0.BXBXBXA.% * = X :.BXBXBXBXBXBXn.9 x l d I.BXBXBXg.p VXVX",
"VXVXVXl I.BXfXO.= 2 > o.fXBXBXBXBXBXBXBX,.n S n ` tXBX).n VXVXVX",
"VXVXVXVXV /.BXXX#X#X@X9XBXBXBXBXBXBXBXBXhX;X;X;X*XBX%XL VXVXVXVX",
"VXVXVXVXVXZ I.BXBXBXBXBXBXBXBXBXBXBXBXBXBXBXBXBXBX(.L VXVXVXVXVX",
"VXVXVXVXVXVXl t.sXBXBXBXBXBXBXBXBXBXBXBXBXBXBXcXg.n VXVXVXVXVXVX",
"VXVXVXVXVXVXVXw ( n.sXBXBXBXBXBXBXBXBXBXBXcXY.| p VXVXVXVXVXVXVX",
"VXVXVXVXVXVXVXVXVXp ! w.E.;XhXBXBXhX4X~.a.( d VXVXVXVXVXVXVXVXVX",
"VXVXVXVXVXVXVXVXVXVXVXVXd S ~ ` ] ! G d VXVXVXVXVXVXVXVXVXVXVXVX"
};
